<svg version="1.1" xmlns="http://www.w3.org/2000/svg" xmlns:xlink="http://www.w3.org/1999/xlink" width="640px" height="512px" viewBox="0,0,256,204.79688"><g fill="#fa5252" fill-rule="nonzero" stroke="none" stroke-width="1" stroke-linecap="butt" stroke-linejoin="miter" stroke-miterlimit="10" stroke-dasharray="" stroke-dashoffset="0" font-family="none" font-weight="none" font-size="none" text-anchor="none" style="mix-blend-mode: normal"><g transform="translate(0.63374,-0.00156) scale(0.4,0.4)"><path d="M96,224v32v160c0,17.7 14.3,32 32,32h32c17.7,0 32,-14.3 32,-32v-88.2c9.9,6.6 20.6,12 32,16.1v24.1c0,8.8 7.2,16 16,16c8.8,0 16,-7.2 16,-16v-16.9c5.3,0.6 10.6,0.9 16,0.9c5.4,0 10.7,-0.3 16,-0.9v16.9c0,8.8 7.2,16 16,16c8.8,0 16,-7.2 16,-16v-24.2c11.4,-4 22.1,-9.4 32,-16.1v88.3c0,17.7 14.3,32 32,32h32c17.7,0 32,-14.3 32,-32v-160l32,32v49.5c0,9.5 2.8,18.7 8.1,26.6l41.9,62.9c8.8,13.1 23.5,21 39.3,21c22.5,0 41.9,-15.9 46.3,-38l20.3,-101.6c2.6,-13 -0.3,-26.5 -8,-37.3l-3.9,-5.5v-81.6c0,-13.3 -10.7,-24 -24,-24c-13.3,0 -24,10.7 -24,24v14.4l-52.9,-74.1c-27.1,-37.8 -70.7,-60.3 -117.2,-60.3h-133.9h-16h-64h-48c-66.3,0 -120,53.7 -120,120v54c-14.6,11.8 -24,29.8 -24,50v17.6c0,8 6.4,14.4 14.4,14.4c31.8,0 57.6,-25.8 57.6,-57.6v-6.4v-32v-40c0,-24.3 12.1,-45.8 30.5,-58.9c-4.2,10.8 -6.5,22.6 -6.5,34.9zM592,336c0,8.8 -7.2,16 -16,16c-8.8,0 -16,-7.2 -16,-16c0,-8.8 7.2,-16 16,-16c8.8,0 16,7.2 16,16zM166.6,166.6c-4.2,-4.2 -6.6,-10 -6.6,-16c0,-12.5 10.1,-22.6 22.6,-22.6h178.8c12.5,0 22.6,10.1 22.6,22.6c0,6 -2.4,11.8 -6.6,16l-23.4,23.4c-21.8,21.8 -51.3,34 -82,34c-30.7,0 -60.2,-12.2 -81.9,-33.9l-23.4,-23.4z"></path></g></g></svg>